<?xml version="1.0" encoding="utf-8"?>
<!-- Generator: Adobe Illustrator 16.0.4, SVG Export Plug-In . SVG Version: 6.00 Build 0)  -->
<!DOCTYPE svg PUBLIC "-//W3C//DTD SVG 1.1//EN" "http://www.w3.org/Graphics/SVG/1.1/DTD/svg11.dtd">
<svg version="1.1" id="Layer_1" xmlns="http://www.w3.org/2000/svg" xmlns:xlink="http://www.w3.org/1999/xlink" x="0px" y="0px"
	 width="612px" height="612px" viewBox="0 0 612 612" enable-background="new 0 0 612 612" xml:space="preserve">
<path fill="none" d="M308.784,267.941c0.183-0.47,0.432-1.109,0.432-1.109C309.026,267.226,308.888,267.592,308.784,267.941z"/>
<path fill="#69B043" d="M309.093,267.943c0,0,0-0.001,0.001-0.002C308.904,268.427,308.79,268.72,309.093,267.943z"/>
<path fill="#69B043" d="M309.244,270.177c0.001,0,0.002,0.006,0.002,0.006S308.139,265.053,309.244,270.177z"/>
<g>
	<g>
		<path fill="#69B043" d="M520.677,240.56c-0.492-3.565-2.06-6.069-5.035-8.07c-5.57-3.75-11.173-7.438-16.959-10.843
			c-1.613-0.949-2.43-2.078-2.005-4.042c0.391-1.801,0.282-3.673,0.175-5.5c-0.13-2.173,0.616-3.681,2.576-4.721
			c2.601-1.378,4.897-3.27,7.445-4.73c3.143-1.8,5.511-3.939,5.081-7.966c-0.046-0.44,0.181-0.896,0.299-1.341
			c2.761-10.299,5.286-20.66,8.089-30.949c0.271-1.515,0.739-2.988,1.034-4.487c0.711-3.611,2.188-8.483,2.226-10.812
			s-0.657-4.123-3.278-4.577s-5.983,1.666-6.607,5.771c-0.179,1.182-0.119,2.379-0.16,3.57c-0.88,4.974-1.171,10.011-1.656,15.028
			c-0.734,7.576-1.709,15.127-2.26,22.722c-0.088,1.204-0.611,1.908-1.971,1.549c-1.661-0.438-3.079,0.236-4.416,1.08
			c-1.945,1.226-4.07,2.125-5.998,3.377c-1.134,0.736-1.873,0.503-2.209-0.85c-0.199-0.802-0.572-1.576-0.655-2.388
			c-0.287-2.832-1.926-4.304-4.523-5.244c-5.438-1.963-10.78-4.201-16.296-5.948c-1.868-0.592-2.472-1.601-2.02-3.488
			c0.664-2.764,1.364-5.521,1.83-8.336c0.494-2.977,1.077-5.907,2.471-8.69c1.729-3.445,2.258-7.172,1.047-10.974
			c-0.759-2.382-0.198-4.433,1.187-6.485c4.115-6.104,9.48-10.931,15.266-15.359c3.111-2.197,10.024-7.225,11.222-7.929
			c1.195-0.704,9.766-5.562,15.391-6.683c4.726-0.94,6.734-5.987,6.18-9.371c-0.589-3.595-3.375-6.275-6.429-6.633
			c-4.49-0.526-7.083,0.746-9.062,4.588c-2.181,4.232-4.964,8.03-8.157,11.589c0.143-0.978,0.271-1.896,0.858-2.75
			c2.75-3.993,4.431-8.567,6.837-12.75c1.579-2.745,0.939-5.191-0.844-7.608c-1.797-2.434-4.243-3.582-7.093-3.232
			c-3.195,0.393-5.56,2.276-6.643,5.428c-0.728,2.114-0.528,4.344-0.646,6.539c-0.123,2.246-0.511,4.478-0.782,6.717
			c-0.871-2.401-1.161-4.731-1.367-7.071c-0.342-3.896-2.616-6.471-6.164-6.893c-2.935-0.35-6.165,2.258-6.776,5.498
			s0.127,4.066,0.867,5.95s6.108,11.691,9.246,17.492c0.531,0.983,1.479,2.024,0.402,3.255
			c-9.789,6.164-20.171,10.631-31.832,12.016c-7.934,0.941-15.7,2.953-23.51,4.695c-6.398,1.427-12.844,1.781-19.108-1.242
			c-3.884-1.875-7.909-3.448-11.651-5.637c-2.766-1.618-3.096-2.238-1.437-4.966c3.058-5.028,5.722-10.28,8.796-15.297
			c0.817-1.333,1.635-2.677,2.094-4.183c1.216-3.993-0.658-7.768-4.489-9.122c-3.587-1.266-7.546,0.571-8.85,4.419
			c-1.375,4.06-1.643,8.36-2.31,12.089c0.411-3.993-0.883-8.339-1.228-12.787c-0.222-2.863-1.017-5.647-3.695-7.369
			c-3.478-2.236-7.607-2.058-10.502,0.439c-2.865,2.473-3.72,6.574-1.983,10.296c2.22,4.757,5.076,9.167,7.69,13.817
			c-1.217-1.244-2.269-2.518-3.395-3.718c-2.538-2.706-4.109-6.104-6.512-8.881c-2.672-3.09-6.558-3.966-9.986-2.497
			c-3.424,1.466-5.664,4.975-5.437,8.517c0.243,3.794,2.925,7.35,6.716,8.18c9.038,1.981,17.106,6.065,24.856,10.926
			c7.185,4.506,14.039,9.418,19.876,15.645c1.522,1.624,2.484,3.249,2.103,5.649c-0.33,2.064-0.541,4.339,0.394,6.265
			c2.529,5.206,2.939,10.991,4.765,16.368c0.72,2.118,0.129,2.993-1.877,3.599c-3.606,1.092-7.175,2.307-10.729,3.561
			c-1.317,0.465-2.819,1.026-2.863,2.634c-0.113,4.142-1.973,7.813-2.904,11.729c-0.642,2.701-0.739,2.692-3.18,1.148
			c-1.319-0.836-2.638-1.674-3.98-2.473c-1.729-1.029-3.41-2.195-5.818-1.532c1.276-6.06,2.771-11.732,4.342-17.384
			c1.574-5.67,3.456-11.246,5.166-16.873c0.801-2.637-0.842-5.243-3.294-5.732c-2.29-0.455-4.277,1.062-4.854,3.771
			c-0.23,1.076-0.486,2.163-0.54,3.262c-0.457,9.291-2.063,18.434-3.479,27.602c-0.375,2.435-0.475,4.973-1.8,7.164
			c-1.876,3.1-0.734,8.497,2.355,10.336c3.157,1.88,6.354,3.697,9.576,5.468c3.666,2.016,3.811,6.902,0.246,9.078
			c-4.71,2.871-9.407,5.752-13.883,8.99c-2.254,1.632-3.692,3.55-4.355,6.385c-0.907,3.874-1.294,7.777-1.66,11.704
			c-0.875,9.322-2.076,18.612-2.751,27.952c-0.268,3.723,2.631,6.901,6.026,6.786c3.405-0.115,6.32-3.423,5.912-6.999
			c-0.251-2.19-0.401-4.389-0.636-6.58c-0.916-8.581-1.769-17.168-2.602-25.757c-0.161-1.671,0.329-2.41,2.018-2.423
			c1.822-0.014,3.356-0.875,4.825-1.849c2.758-1.829,5.565-3.586,8.223-5.561c0.894-0.665,1.794-1.402,2.423,0.096
			s3.281,14.926,5.268,21.254s3.96,8.356,5.605,11.279c1.646,2.923,2.41,4.279,3.613,6.418v0.001
			c-0.382,0.498-0.685,1.096-1.16,1.478c-6.353,5.093-11.584,11.167-15.967,18.006c-2.16,3.371-2.201,4.48,0.535,7.459
			c1.145,1.248,1.556,2.463,1.599,4.139c0.344,13.365,0.808,26.727,1.215,40.09c0.055,1.828,0.542,3.412,2.069,4.547
			c1.552,0.865,3.092,0.719,4.626-0.039c1.542-0.291,2.046-1.404,2.172-2.783c0.179-1.934-0.014-3.834-0.343-5.752
			c-1.861-10.857-3.503-21.752-5.251-32.629c-0.284-1.771-0.019-2.658,2.047-2.254c2.804,0.545,4.641-0.719,6.119-3.115
			c3.146-5.094,6.002-10.305,8.066-15.938c0.9-2.455,1.14-2.436,2.955-0.406c4.611,5.16,9.993,9.426,15.506,13.58
			c4.526,3.408,8.625,2.938,13.111-0.109c6.025-4.092,11.703-8.549,16.788-13.766c3.098-3.178,3.184-3.084,4.839,1.066
			c3.274,8.213,7.47,15.951,12.289,23.357c1.167,1.793,2.657,2.969,4.889,3.141c2.712,0.209,2.692,0.256,2.044,3.051
			c-2.219,9.57-4.198,19.197-6.462,28.758c-0.358,1.51-0.763,3.064,0.468,4.426c2.267,4.773,6.096,5.209,9.998,1.135
			c0.177-0.559,0.354-1.113,0.532-1.67c0.01-12.008,0.027-24.018,0.021-36.027c0-1.205,0.082-2.281,0.862-3.346
			c2.011-2.748,1.829-5.496,0.031-8.418c-5.816-9.451-11.953-18.648-19.732-26.637c-0.492-0.887,0.026-1.546,0.472-2.252
			c7.525-11.962,10.923-24.923,13.247-38.657c0.044-0.193,0.219-0.378,0.31-0.394c1.45-0.698,2.45,0.171,3.456,0.998
			c3.561,2.927,7.563,5.218,11.314,7.873c1.365,0.964,2.895,1.54,4.603,1.7c2.784,0.259,3.142,0.68,2.795,3.454
			c-0.868,6.927-1.253,13.899-1.939,20.842c-0.313,3.17-0.969,6.388-0.524,9.602c0.41,2.963,2.465,4.651,5.28,4.581
			c2.551-0.066,4.487-1.963,4.796-4.792c0.179-1.646,0.217-3.321,0.03-4.959C522.585,262.88,522.206,251.668,520.677,240.56z"/>
		<path fill="#69B043" d="M144.416,278.908c0.216,0.354,0.435,0.708,0.652,1.063c0,0,0,0-0.001,0
			c0.769,1.115,2.397,3.412,2.746,3.931c4.954,7.391,7.953,12.484,14.851,18.23c4.822,4.02,5.606,4.07,10.578,0.207
			c6.702-5.211,12.28-11.49,17.111-18.434c1.111-1.596,1.303-2.204,3.158-4.766s2.769-3.825,2.769-3.825
			c5.209,8.908,11.551,16.839,18.778,24.089c1.384,1.387,2.874,2.479,4.859,1.816c2.95-0.982,2.517,0.443,1.942,2.348
			c-3.734,12.375-7.344,24.789-11.196,37.129c-0.711,2.281-0.546,5.451,0.185,6.34s1.46,1.398,2.447,1.738
			c0.987,0.338,4.323,0.076,5.733-1.059s1.727-5.184,1.973-7.293c0.247-2.111,2.33-20.572,3.733-30.824
			c0.681-4.961,0.374-10.088,2.194-14.863c0.869-2.277-0.105-3.922-1.532-5.447c-6.72-7.189-13.609-14.243-21.951-19.556
			c-2.547-1.622-4.25-3.06-3.438-5.791c-0.303,0.777-0.188,0.484,0.001-0.002c0.104-0.349,0.243-0.715,0.432-1.109
			c0,0-0.249,0.639-0.432,1.109c0,0,0,0.001-0.001,0.002c0.098-0.251,0.236-0.604,0.434-1.113c1.403-3.6,4.083-16.775,5.085-22.107
			s2.567-16.818,3.025-19.626c0.414-2.538,0.642-2.688,3.02-1.679c5.762,2.444,11.641,4.534,17.665,6.232
			c1.388,0.392,2.901,0.455,4.28,1.408c-3.112,4.289-6.688,8.101-10.137,12.01c-2.613,2.962-5.048,6.073-7.709,8.999
			c-1.881,2.069-2,4.616-0.684,6.615c1.233,1.873,3.241,2.618,5.551,2.054c1.854-0.452,2.96-1.836,3.873-3.328
			c5.558-9.093,11.119-18.185,16.588-27.33c2.759-4.614,0.516-9.923-4.649-11.683c-5.138-1.752-10.386-3.084-15.708-4.177
			c-3.448-0.708-6.98-0.994-10.885-1.974c7.209-3.783,13.684-7.786,20.087-11.919c2.582-1.666,4.555-3.392,3.995-6.811
			c-0.13-0.802,0.231-1.63,0.445-2.429c3.549-13.224,6.941-26.49,10.361-39.748c0.137-0.537-0.012-1.304,0.78-1.523
			c0.634,0.516,0.975,1.174,1.365,1.79c6.238,9.87,12.875,19.47,19.872,28.81c1.756,2.346,2.339,4.616,1.998,7.385
			c-0.185,1.497-0.823,2.375-2.287,2.675c-0.9,0.185-1.801,0.368-2.698,0.565c-8.551,1.883-16.846,4.597-24.916,7.958
			c-5.726,2.385-6.766,7.722-2.321,11.866c8.065,7.516,16.058,15.106,23.897,22.854c3.04,3.006,6.215,4.503,10.348,2.482
			c0.065-0.034,0.12-0.073,0.178-0.111c0.913,6.219,2.305,13.25,4.32,17.789c0,0-0.541-1.489,0,0c0.542,1.49,1.366,5.4,1.366,5.4
			c0.202,1.477-0.941,2.489-1.855,3.593c-6.675,8.057-11.602,17.155-15.819,26.671c-1.86,4.195-1.666,5.295,1.593,8.506
			c0.86,0.848,1.634,1.594,1.632,2.996c-0.033,16.727-0.006,33.451,0.005,50.18c-0.567,0.73-0.354,1.467-0.007,2.199
			c0.213,0.781,0.427,1.559,0.64,2.342c2.162,2.633,5.087,2.609,7.207-0.057c0.744-1.418,0.474-2.965,0.57-4.463
			c-0.161-0.523-0.414-1.035-0.468-1.57c-1.547-15.402-3.009-30.814-4.674-46.207c-0.249-2.309,0.447-2.623,2.385-2.469
			c2.039,0.164,4.305,0.197,5.333-1.973c3.379-7.125,6.427-14.389,7.889-22.205c0.359-0.746,0.071-1.845,1.127-2.212l3.782,6.682
			c4.377,8.823,9.831,16.272,16.575,23.415c2.031,2.148,2.978,2.1,5.464,0.301c4.422-3.203,7.706-7.508,10.928-11.816
			c2.1-2.809,4.357-5.559,5.527-8.95c0.372,0.332,1.036,0.214,1.524,0.361c0.584,0.744,0.686,1.677,0.938,2.553
			c1.574,5.463,3.273,10.885,5.367,16.178c0.675,1.709,1.677,3.166,3.488,3.625c2.458,0.625,2.434,1.678,1.266,3.643
			c-7.403,12.449-21.389,35.566-22.27,37.314c-0.881,1.746-3.326,7.502-3.4,11.594c-0.074,4.09,5.158,3.279,7.222,2.311
			c2.063-0.971,2.242-1.965,3.128-3.242s1.84-4.713,2.99-7.482c5.268-12.604,10.499-25.227,15.827-37.807
			c1.375-3.246,2.202-6.77,4.785-9.447c1.704-1.768,1.689-3.885,0.918-6.168c-2.026-6-4.212-11.926-6.708-17.754
			c-1.733-4.044-4.188-7.744-5.523-11.962c0.158-0.221,0.374-0.42,0.462-0.665c3.815-10.727,6.253-21.785,7.939-33.025
			c1.13-7.512,2.433-15.005,2.614-22.625c0.992,0.342,1.21,1.346,1.623,2.153c1.467,2.864,3.015,5.684,4.557,8.508
			c0.767,1.405,1.701,2.755,3.202,3.304c3.445,1.263,2.733,2.321,1.987,5.127c-2.698,10.126-5.193,20.306-7.646,30.494
			c-0.863,3.581,1.118,6.712,4.229,7.13c3.101,0.416,5.696-2.103,5.992-5.766c0.752-9.238,1.492-18.477,2.334-27.706
			c0.406-4.451,0.321-9.02,2.149-13.273c0.667-1.554,0.062-3.082-0.604-4.517c-3.879-8.362-8.53-16.278-13.973-23.718
			c-2.454-3.356-2.355-3.781,1.866-4.446c7.728-1.219,15.319-3.047,22.894-4.965c4.238-1.073,5.702-2.719,5.947-6.478
			c0.113-1.74-0.727-3.208-1.367-4.716c-4.465-10.485-8.978-20.952-13.534-31.399c-1.504-3.451-2.738-7.034-4.61-10.313
			c-1.372-2.408-3.771-3.203-6.113-2.245c-2.246,0.918-3.416,3.346-2.868,5.93c0.195,0.92,0.656,1.717,1.142,2.495
			c3.419,5.45,6.632,11.026,10.104,16.442c3.622,5.649,6.972,11.466,10.579,17.124c0.797,1.249,1.03,2.084-0.874,2.442
			c-7.863,1.48-15.647,3.315-23.313,5.614c-1.695,0.509-2.342-0.056-2.558-1.716c-0.401-3.096-0.96-6.176-1.378-9.266
			c-0.33-2.432-1.414-3.983-3.443-5.261c-7.059-4.443-14.459-8.267-21.796-12.266c0.679-0.406,1.437-0.381,2.141-0.546
			c4.854-1.132,7.961-3.761,8.686-9.021c0.548-3.995,1.648-7.913,2.492-11.867c0.608-2.853,0.722-5.841,2.228-8.492
			c2.206-3.885,2.338-8.124,1.362-12.319c-0.532-2.299-0.192-4.137,1.149-5.938c3.135-4.206,6.388-8.287,10.561-11.56
			c9.727-7.626,19.608-13.154,31.943-16.225c5.361-1.333,7.641-6.872,5.616-12.383c-3.06-4.749-6.42-5.967-11.792-4.262
			c-2.014,0.926-3.089,2.628-4.287,4.451c-1.884,2.868-3.272,4.109-5.624,7.317c3.166-4.676,5.17-9.285,7.579-13.662
			c2.238-4.955-0.217-10.239-2.327-11.451s-3.605-1.913-6.13-1.531s-4.59,1.64-5.926,3.928c-1.138,1.953-1.394,4.095-1.41,6.293
			c-0.742,6.105-1.502,12.209-1.142,18.379c-0.191-5.012-0.594-9.997-1.556-14.925c-0.321-1.649-1.085-3.102-2.117-4.416
			c-2.436-2.127-5.171-2.58-8.188-1.468c-4.067,2.701-5.1,6.062-2.984,10.392c2.984,6.104,6.34,12.017,9.522,18.02
			c1.512,2.851,1.373,3.43-1.371,5.081c-8.857,5.337-18.213,9.326-28.596,10.574c-8.035,0.966-15.912,2.777-23.776,4.646
			c-6.908,1.643-13.717,1.89-20.409-1.23c-3.244-1.513-6.527-2.942-9.703-4.599c-4.941-2.575-4.907-2.578-2.11-7.306
			c3.085-5.217,5.959-10.555,9-15.797c1.544-2.663,2.302-5.44,0.371-8.294c-1.84-2.719-4.679-4.056-7.581-3.291
			c-3.107,0.819-5.13,2.94-5.641,6.11c-0.538,3.335-1.297,6.631-1.633,9.896c-0.359-4.019-1.097-8.084-1.423-12.183
			c-0.299-3.759-1.932-6.421-5.244-8.111c-3.692-1.221-6.999-0.674-9.815,2.133c-2.086,2.706-2.659,5.784-1.299,8.836
			c2.51,5.632,5.975,10.759,8.42,15.235c-3.072-3.468-6.715-7.823-9.817-12.634c-2.231-3.463-6.286-4.654-9.936-3.387
			c-3.817,1.324-6.015,4.723-5.833,9.015c0.168,3.972,2.45,6.703,6.541,7.809c1.597,0.432,3.195,0.857,4.786,1.317
			c8.686,2.504,16.38,7.018,23.779,12.012c6.163,4.156,12.265,8.457,17.019,14.33c0.994,1.229,1.484,2.483,1.109,4.066
			c-0.615,2.599-0.324,5.164,0.794,7.548c1.619,3.453,2.443,7.107,3.183,10.81c0.541,2.705,1.482,5.308,2.279,7.947
			c1.346,4.46,4.348,7.113,8.654,8.5c1.436,0.461,2.917,0.754,4.52,1.147c-7.256,3.056-14.023,6.759-20.841,10.368
			c-1.828,0.968-2.912,2.147-2.474,4.355c0.211,1.058,0.046,2.113-0.562,3.419c-4.257-8.053-9.264-15.22-13.7-22.734
			c-0.993-1.685-2.052-3.309-3.856-4.206c-1.33-0.662-1.034-1.321-0.103-1.985c2.935-2.095,5.194-4.926,7.975-7.202
			c3.767-3.086,7.376-6.361,11.349-9.195c1.511-1.08,2.407-2.598,2.042-4.521c-0.344-1.804-1.662-2.867-3.332-3.341
			c-2.327-0.658-3.849,0.668-5.086,2.42c-3.451,4.882-7.033,9.669-10.98,14.158c-2.363,2.688-4.348,5.793-7.281,7.867
			c-1.549,1.096-3.473,1.58-3.512,3.811c-0.388,0.086-0.558,0.04-0.725-0.058c-4.699-2.706-8.058-1.153-8.734,4.252
			c-0.729,5.827-1.183,11.689-1.796,17.533c-0.824,7.851-1.696,15.698-2.275,23.573c-0.098,1.322-0.441,2.145-2.029,1.606
			c-1.557-0.529-2.891,0.254-4.159,0.989c-5.089,2.954-10.137,5.979-15.062,9.199c-2.65,1.733-2.916,1.756-3.443-1.314
			c-0.458-2.669-1.807-4.187-4.299-5.164c-3.419-1.339-6.634-3.158-10.015-4.614c-2.741-1.182-2.707-1.261-1.368-4.052
			c0.44-0.917,0.716-1.889,0.976-2.868c1.395-5.246,2.467-10.562,3.396-15.909c0.33-1.896,0.678-3.758,1.634-5.512
			c1.9-3.487,2.815-7.266,1.68-11.167c-1.007-3.461-0.147-6.229,2.064-8.909c9.863-11.953,22.061-18.94,36.388-24.739
			c1.619-0.655,3.397-0.825,5.034-1.441c4.705-1.77,7.443-6.412,6.279-10.605c-1.004-3.619-4.246-6.462-7.834-6.872
			c-3.482-0.4-6.728,1.764-8.893,4.87c-2.174,3.121-3.751,4.72-5.574,7.456c1.847-4.119,4.807-8.175,6.481-12.847
			c1.703-4.753-0.629-9.257-5.287-10.774c-4.671-1.522-9.206,0.778-10.628,5.612c-1.177,3.999-0.981,8.152-1.02,11.482
			c-0.183-1.467-0.897-3.784-1.433-6.022c-0.517-2.155-1.167-4.052-3.067-5.31c-2.866-1.896-6.405-1.676-8.942,0.538
			c-2.654,2.314-3.227,5.573-1.395,9.006c2.77,5.188,6.455,10.354,9.11,15.603c3.095,6.119,3.98,5.324-2.688,9.283
			c-6.713,3.985-13.97,7.109-21.511,8.169c-11.569,1.629-22.843,4.682-34.415,6.229c-3.421,0.457-6.537,0.515-9.697-0.525
			c-4.718-1.553-9.34-3.369-13.651-5.88c-5.446-3.174-5.442-3.179-1.943-8.646c2.757-5.08,5.719-10.046,8.534-15.094
			c1.53-2.746,1.801-5.537-0.158-8.249c-0.439-0.093-0.989-0.051-1.303-0.303c-4.707-3.772-9.708-1.979-10.852,3.926
			c-0.432,2.236-0.738,4.506-1.335,6.697c-0.169,0.619,0.276,1.958-0.967,1.898c-1.081-0.052-0.968-1.195-1.076-1.97
			c-0.545-3.879-0.816-7.813-1.622-11.635c-1.079-5.125-5.553-6.736-9.955-5.545c-4.097,1.107-6.392,6.71-4.628,10.568
			c0.679,1.486,1.546,2.888,2.351,4.315c2.36,4.189,4.73,8.372,7.098,12.558c-1.777-0.813-2.982-2.094-4.224-3.399
			c-3.047-3.21-5.349-6.938-7.929-10.481c-2.239-3.076-6.37-4.087-9.502-2.853c-3.959,1.562-5.24,4.703-4.968,8.304
			c0.267,3.552,2.135,6.528,7.005,7.244c5.061,0.743,10.33,2.335,14.197,4.935s17.354,11.666,17.354,11.666
			c4.715,3.5,9.484,6.95,13.163,11.631c0.76,0.969,1.351,1.931,1.142,3.253c-0.652,4.12-0.076,8.042,1.939,11.738
			c0.573,1.051,0.769,2.254,0.998,3.428c1.308,6.721,2.678,13.418,7.525,18.799c-3.89,1.885-7.812,3.204-11.602,4.837
			c-1.559,0.672-3.239,1.504-3.079,3.449c0.237,2.869-0.902,5.409-1.444,8.087c-0.543,2.688-0.827,2.805-3.178,1.245
			c-4.208-2.793-8.448-5.532-12.751-8.178c-2.146-1.319-4.189-1.525-6.085,0.533c-0.631-2.199-0.812-4.305-1.133-6.388
			c-1.834-11.881-3.702-23.757-4.21-35.794c-0.066-1.586-0.478-3.08-1.373-4.413c-1.662-1.743-3.544-2.207-5.649-0.854
			c-1.802,1.159-2.295,3.037-1.526,5.596c0.394,1.312,0.845,2.606,1.246,3.92c3.12,11.348,6.102,22.73,8.338,34.292
			c0.345,1.783,0.668,3.547,0.397,5.448c-0.494,3.465,0.733,7.887,4.157,9.64c4.989,2.553,9.939,5.229,15.069,8.193
			c-6.391,0.809-12.248,2.419-18.098,4.013c-2.647,0.721-5.379,1.292-7.839,2.597c-3.816,2.024-5.615,6.493-3.736,9.632
			c5.333,8.913,10.595,17.868,16.122,26.663c2.274,3.62,6.155,4.372,9.236,2.031c2.798-2.126,2.986-5.865,0.367-9.031
			c-1.524-1.842-3.297-3.463-5.017-5.12c-4.486-4.321-8.384-9.182-13.141-13.734c8.439-2.118,16.313-4.589,23.985-7.666
			c1.541-0.618,1.992-0.091,1.983,1.4c-0.021,3.217-0.344,1.215,0.004,9.654c0.347,8.417,7.942,33.927,7.98,34.057
			c-1.106-5.125,0.002,0.006,0.002,0.006s-0.001-0.006-0.002-0.006c0,0.002,0.001,0.004,0.001,0.006
			c0.477,2.207,0.721,2.689-0.977,3.737c-7.458,4.603-13.224,11.019-18.68,17.75c-2.931,3.615-3.003,4.242-0.554,8.252
			c0.718,1.176,1.23,2.166,0.938,3.75c-2.097,11.34-4.019,22.715-5.982,34.078c-0.312,1.805-0.521,3.629-0.841,5.434
			c-0.61,3.447,0.791,5.859,3.607,6.121c2.604,0.244,4.471-1.867,4.634-5.316c0.585-12.379,1.202-24.756,1.68-37.139
			c0.087-2.258,0.533-2.99,2.839-2.037c1.86,0.768,3.842,1.295,5.495-0.768c4.728-5.898,8.936-12.115,12.06-19.028
			C142.792,280.078,142.819,278.72,144.416,278.908z M268.938,224.46c-9.15-5.908-17.956-11.596-27.188-17.558
			c5.787-2.182,11.226-3.774,16.371-6.126c2.829-1.294,5.675-2.548,8.499-3.85c1.076-0.497,1.854-0.479,1.714,0.968
			c-0.813,8.433,0.077,16.813,0.702,25.205C269.056,223.366,269,223.639,268.938,224.46z"/>
	</g>
	<g>
		<path fill="#69B043" d="M383.259,515.797c-0.052-2.932-0.459-5.8-1.307-8.557c-1.571-5.123-4.68-8.72-10.296-9.663
			c-4.067-0.683-7.635,0.839-11.649,2.528c0-1.452-0.141-2.563,0.026-3.624c0.363-2.299-0.521-3.098-2.779-2.799
			c-2.078,0.27-4.19,0.564-6.273,0.478c-2.538-0.104-3.217,0.905-3.088,3.324c0.66,12.383,0.757,24.77,0.166,37.165
			c-0.345,7.204-0.2,7.084,7.179,6.7c2.431-0.127,2.894-1.014,2.973-3.203c0.29-8.091,0.771-16.172,1.23-24.257
			c0.083-1.443-0.151-3.235,1.673-3.815c1.792-0.574,3.513-1.388,5.476-1.474c4.344-0.186,5.249,0.521,6.01,4.754
			c1.228,6.831,0.94,13.744,1.35,20.622c0.521,8.742-1.296,7.456,7.665,6.083c1.843-0.281,2.338-0.977,2.158-2.674
			C383.008,530.205,383.381,522.995,383.259,515.797z"/>
		<path fill="#69B043" d="M266.993,518.596c0-5.104-0.073-10.207,0.017-15.312c0.132-7.431,0.19-7.377-7.331-6.345
			c-1.773,0.244-2.573,0.758-2.66,2.724c-0.381,8.49-0.938,16.97-1.432,25.453c-0.07,1.191,0.025,2.414-1.446,2.978
			c-1.868,0.721-3.694,1.543-5.721,1.714c-3.901,0.33-4.992-0.446-5.762-4.343c-1.404-7.103-1.345-14.325-1.529-21.518
			c-0.185-7.253-0.089-7.199-7.417-5.8c-1.694,0.322-2.349,0.893-2.287,2.693c0.295,8.495,0.288,17.004,0.746,25.487
			c0.219,4.103,1.439,8.121,4.615,11.077c4.786,4.454,10.169,4.532,15.846,1.846c1.418-0.67,2.889-1.699,3.436,1.077
			c0.955,4.841,1.049,4.823,5.853,4.21c0.991-0.128,1.987-0.452,2.965-0.397c2.083,0.113,2.599-0.911,2.414-2.748
			C266.534,533.807,266.973,526.193,266.993,518.596z"/>
		<path fill="#69B043" d="M228.445,482.529c-0.041-1.239,0.292-2.794-1.873-2.544c-2.776,0.321-5.553,0.694-8.341,0.836
			c-1.945,0.1-2.078,0.938-2.021,2.666c0.326,9.798,1.649,19.543,1.372,30.335c0,2.529,0.004,6.03-0.004,9.532
			c-0.001,0.5-0.079,0.998-0.111,1.498c-0.173,2.732-1.382,4.706-4.013,5.766c-3.919,1.579-7.799,1.456-11.646-0.162
			c-2.167-0.913-4.281-1.945-6.418-2.925c-0.811,2.334-1.501,4.716-2.462,6.985c-0.986,2.33-0.479,3.84,1.624,5.306
			c7.816,5.453,18.184,4.225,26.727-0.391c4.443-2.4,6.711-6.309,7.214-11.378c0.743-7.472,1.079-14.934,0.711-22.447
			C228.83,497.92,228.701,490.222,228.445,482.529z"/>
		<path fill="#69B043" d="M305.691,494.771c-2.082,0.17-4.585-0.672-6.184,0.22c-2.065,1.155-0.181,4.045-1.243,6.558
			c-0.983-1.065-1.839-1.872-2.554-2.788c-4.239-5.425-14.938-5.267-19.043,0.186c-7.349,9.757-9.051,20.521-6.135,32.031
			c2.117,8.358,8.915,13.138,16.705,12.479c3.349-0.286,6.323-1.771,9.194-3.424c1.731-0.997,2.579-0.741,2.344,1.445
			c-0.118,1.09-0.038,2.201-0.17,3.288c-0.663,5.44-2.127,6.871-7.557,8.031c-4.23,0.901-7.818-0.829-11.484-2.403
			c-1.883-0.809-3.848-3.283-5.371-2.472c-1.587,0.846-2.055,3.684-3.169,5.558c-1.07,1.801-0.435,2.804,1.113,3.905
			c7.312,5.215,15.355,6.881,24.137,5.258c7.41-1.369,11.366-5.862,11.344-13.487c-0.046-17.096,0.373-34.178,1.234-51.248
			C308.983,495.286,308.117,494.569,305.691,494.771z M296.773,526.656c-1.354,4.27-4.678,6.433-9.652,6.536
			c-3.332,0.069-5.4-1.722-7.164-6.096c-2.608-6.47-2.024-12.446,2.556-17.901c1.639-1.952,3.789-2.979,6.153-3.432
			c2.701-0.514,4.912,0.57,6.299,2.981c1.927,3.348,2.859,6.996,3.042,10.842C298.048,522.025,297.496,524.381,296.773,526.656z"/>
		<path fill="#69B043" d="M422.81,478.311c-2.294-0.024-4.625-0.089-6.862-0.533c-2.373-0.469-2.674,0.533-2.646,2.509
			c0.097,6.279-0.116,12.567,0.73,19.391c-1.354-0.639-2.148-1.023-2.947-1.392c-8.918-4.108-15.242-2.152-20.273,6.241
			c-3.101,5.171-4.629,10.874-4.94,16.787c-0.801,15.269,10.908,24.053,25.344,19.172c1.495-0.504,2.709-0.852,3.291,1.071
			c0.318,1.051,1.186,0.962,1.958,0.912c2.29-0.142,4.573-0.406,6.865-0.513c1.823-0.087,2.253-0.943,2.198-2.694
			c-0.196-6.594-0.314-13.188-0.299-19.786c0.033-12.692,0.117-25.386,0.327-38.076C425.592,479.21,424.998,478.336,422.81,478.311z
			 M413.488,519.407c-0.034,0-0.067,0-0.1,0c0,2.397-0.195,4.812,0.054,7.182c0.266,2.536-0.998,3.498-3.104,4.251
			c-9.503,3.397-13.327,0.704-13.258-9.421c0.025-3.405,0.228-6.781,1.488-9.998c1.413-3.612,3.326-4.761,7.19-4.364
			c7.103,0.733,7.724,1.411,7.729,8.456C413.488,516.811,413.488,518.107,413.488,519.407z"/>
		<path fill="#69B043" d="M332.877,497.562c-8.921-1.04-16.708,1.833-19.905,11.816c-1.818,5.679-2.631,11.434-1.815,17.416
			c1.094,8.026,5.97,13.193,13.903,14.178c4.463,0.554,8.958,0.795,13.469,0.602c6.556-0.28,6.467-0.252,6.531-6.693
			c0.024-2.343-0.59-3.14-3.055-2.933c-4.48,0.374-8.996,0.417-13.485,0c-3.647-0.342-5.599-2.063-6.185-5.045
			c-0.294-1.501,0.006-2.253,1.731-2.213c3.298,0.082,6.602,0.026,9.901,0.026c0,0.028,0,0.057,0,0.09
			c3.101,0,6.203-0.097,9.299,0.038c1.646,0.071,2.322-0.382,2.45-2.094c0.316-4.312,0.193-8.615-0.412-12.866
			C344.221,502.278,340.474,498.451,332.877,497.562z M333.02,517.021c-1.191-0.029-2.382-0.006-3.577-0.006
			c0-0.02-0.001-0.041-0.001-0.063c-1.488-0.075-2.98-0.121-4.464-0.231c-3.813-0.292-3.819-0.308-2.63-3.891
			c0.632-1.906,1.53-3.703,3.005-5.063c2.933-2.701,7.37-1.933,9.339,1.578c0.625,1.114,1.125,2.329,1.508,3.551
			C337.529,517.133,337.498,517.135,333.02,517.021z"/>
		<path fill="#69B043" d="M95.38,417.97c0,8.901,0.204,17.811-0.107,26.699c-0.116,3.309,1.027,3.683,3.841,3.722
			c12.001,0.178,24.001,0.529,35.995,0.975c2.756,0.104,3.824-0.455,3.116-3.436c-0.43-1.809-0.273-3.789-0.169-5.682
			c0.125-2.228-0.682-2.904-2.948-2.785c-8.285,0.443-16.585,0.627-24.875,1.035c-2.098,0.099-2.91-0.564-2.823-2.676
			c0.118-2.896,0.092-5.805,0.038-8.705c-0.026-1.443,0.34-2.21,1.984-2.252c2.996-0.078,5.984-0.451,8.979-0.529
			c8.34-0.224,8.252-0.192,8.302-8.436c0.014-2.312-0.755-3.046-2.936-2.849c-4.896,0.451-9.797,0.034-14.695,0.028
			c-1.822-0.003-2.527-0.531-2.377-2.399c0.271-3.388,0.548-6.788,0.51-10.178c-0.023-2.178,0.77-2.673,2.796-2.663
			c8.005,0.047,16.01-0.1,24.017-0.1c1.901,0,3.036-0.48,3.026-2.641c-0.007-1.692,0.02-3.442,0.422-5.068
			c0.713-2.892-0.293-3.594-3.118-3.496c-11.997,0.427-24,0.694-36.002,0.912c-1.96,0.035-2.561,0.637-2.542,2.605L95.38,417.97z"/>
		<path fill="#69B043" d="M352.389,448.191c-0.098-6.896-0.039-13.793-0.039-20.688c-0.043,0-0.088,0-0.133,0
			c0-5.397-0.061-10.797,0.013-16.193c0.11-8.058,0.153-8.006-8.046-7.445c-1.552,0.107-2.086,0.633-2.133,2.117
			c-0.144,4.395-0.36,8.789-0.579,13.18c-0.214,4.292-0.398,8.589-0.737,12.873c-0.084,1.083,0.166,2.501-1.364,3.047
			c-2.256,0.807-4.509,1.636-6.935,1.741c-2.263,0.103-3.908-0.724-4.338-3.146c-0.365-2.061-0.746-4.121-1.009-6.198
			c-0.878-6.95-0.643-13.96-1.03-20.939c-0.045-0.864,0.471-2.426-1.06-2.286c-2.652,0.246-5.572,0.11-7.826,1.511
			c-1.888,1.171-0.114,3.518-0.404,5.322c-0.062,0.389-0.013,0.799,0.009,1.196c0.419,7.386-0.124,14.8,0.693,22.176
			c1.116,10.062,8.668,15.318,18.166,12.546c1.139-0.33,2.229-0.85,3.308-1.355c1.201-0.563,1.69-0.302,2.083,1.056
			c0.465,1.603-0.111,3.988,1.395,4.672c1.444,0.658,3.487,0.013,5.266-0.075c0.7-0.034,1.399-0.188,2.094-0.154
			C351.915,451.241,352.417,450.164,352.389,448.191z"/>
		<path fill="#69B043" d="M451.222,384.767c-3.493-0.262-7.003-0.553-10.482-0.093c-4.159,0.551-7.215,2.55-8.623,6.8
			c-1.637,4.936-1.958,10.004-1.787,15.105c0.091,2.777-0.738,4.236-3.663,3.888c-2.697-0.315-3.661,0.883-3.286,3.462
			c0.103,0.686,0.032,1.398,0.032,2.098c-0.013,4.083-0.007,4.205,4.014,3.968c2.242-0.134,2.958,0.534,2.923,2.812
			c-0.118,8,0.045,16.004-0.097,24.006c-0.044,2.511,0.4,3.819,3.26,3.319c1.462-0.257,3.004-0.226,4.491-0.101
			c2.602,0.219,3.481-0.745,3.346-3.423c-0.358-7.089-0.426-14.191-0.636-21.288c-0.148-4.911-0.168-4.909,4.655-5.515
			c5.468-0.691,5.468-0.691,5.555-6.125c0.067-4.179,0.067-4.179-4.264-4.013c-6.337,0.237-6.339,0.237-6.178-6.034
			c0.021-0.8,0.031-1.602,0.109-2.397c0.269-2.758,1.616-4.484,4.389-5.387c2.968-0.964,5.709,0.317,8.903,0.362
			c0-2.839-0.135-5.633,0.046-8.409C454.067,385.683,453.089,384.905,451.222,384.767z"/>
		<path fill="#69B043" d="M520.304,404.858c-5.407-1.047-10.214,0.697-15.05,2.878c-0.965-2.277,1.061-5.107-0.79-6.112
			c-1.666-0.901-4.275-0.077-6.47,0.011c-0.598,0.022-1.199,0.256-1.782,0.2c-2.906-0.27-3.42,1.249-3.221,3.771
			c0.958,12.072,0.478,24.164,0.43,36.248c-0.01,2.447-1.622,5.581,0.113,7.145c1.674,1.509,4.771-0.185,7.255,0.019
			c1.762,0.144,2.366-0.58,2.456-2.404c0.429-8.667,1.079-17.325,1.498-25.994c0.087-1.806,0.665-2.649,2.388-3.111
			c3.764-1.005,7.504-1.438,11.099,0.376c1.833,0.925,2.461,0.364,2.758-1.411c0.461-2.753,0.832-5.536,1.539-8.229
			C523.102,406.053,522.526,405.287,520.304,404.858z"/>
		<path fill="#69B043" d="M401.121,401.381c-2.379,0.259-4.779,0.517-7.166,0.492c-2.256-0.021-2.637,1.067-2.494,2.982
			c0.927,12.468,0.55,24.956,0.355,37.436c-0.115,7.438-0.248,7.393,7.315,6.754c1.803-0.151,2.523-0.688,2.611-2.661
			c0.384-8.57,1.038-17.13,1.441-25.703c0.093-1.963,0.792-2.813,2.663-3.245c3.876-0.89,7.694-1.328,11.366,0.61
			c1.438,0.759,1.91,0.245,2.146-1.122c0.505-2.946,0.868-5.938,1.659-8.809c0.589-2.143-0.029-2.782-2.063-3.217
			c-5.414-1.155-10.224,0.66-15.608,2.982c0.119-1.527,0.088-2.729,0.327-3.873C404.143,401.766,403.205,401.15,401.121,401.381z"/>
		<path fill="#69B043" d="M272.504,446.382c-0.087-9.293-0.039-18.588-0.039-27.882h0.01c0-8.895-0.02-17.79,0.01-26.685
			c0.015-4.295,0.06-4.285-4.045-3.79c-1.19,0.143-2.39,0.288-3.584,0.29c-2.828,0.006-3.858,1.048-3.742,4.154
			c0.599,15.978,0.526,31.969,0.443,47.958c-0.013,2.582-1.675,6.056,0.488,7.574c1.891,1.324,5.213,0.545,7.886,0.832
			C271.889,449.047,272.523,448.368,272.504,446.382z"/>
		<path fill="#69B043" d="M313.814,448.257c1.689-1.713,0.232-4.385,0.207-6.621c-0.203-17.495-0.266-34.99,0.254-52.971
			c-0.713-0.704,1.58-3.231-1.607-3.423c-2.789-0.168-5.584-0.34-8.364-0.622c-1.892-0.19-2.4,0.6-2.372,2.392
			c0.091,5.495,0.115,10.984,0.575,16.475c0.267,3.197,0.056,3.229-2.733,1.706c-7.005-3.827-13.807-2.471-18.518,3.886
			c-5.013,6.762-6.893,14.584-6.677,22.831c0.223,8.505,9.792,20.021,21.824,16.461c1.525-0.448,3.059-0.881,4.598-1.288
			c0.635-0.169,1.614-0.648,1.787,0.309c0.578,3.224,2.941,2.144,4.661,1.846C309.605,448.864,312.317,449.771,313.814,448.257z
			 M302.408,418.185c-0.121,1.083-0.022,2.19-0.022,3.286l-0.319,0.002c0,4.379-0.003,8.761,0.004,13.141
			c0.001,0.817,0.015,1.618-0.863,2.057c-3.053,1.529-6.195,2.809-9.7,2.405c-2.687-0.306-4.361-2.043-4.98-4.54
			c-1.347-5.434-1.133-10.864,0.802-16.143c1.317-3.59,2.993-4.589,6.797-4.492c2.235,0.058,4.268,0.835,6.355,1.51
			C301.963,415.891,302.586,416.626,302.408,418.185z"/>
		<path fill="#69B043" d="M160.412,403.916c-2.084,0.346-4.046,1.016-6.046,1.618c-0.911,0.271-2.065,0.901-2.442-0.604
			c-0.445-1.783-1.695-1.689-3.031-1.573c-2.187,0.189-4.37,0.455-6.559,0.554c-1.544,0.067-2.106,0.697-1.958,2.235
			c0.231,2.384,0.437,4.778,0.465,7.169c0.202,16.384,0.33,32.77-0.369,50.816c-0.062,3.192-0.062,3.181,4.73,3.524
			c1.493,0.106,2.988,0.242,4.468,0.466c2.378,0.357,3.336-0.349,3.305-2.996c-0.065-5.496-0.272-10.979-0.7-16.45
			c-0.147-1.88,0.391-2.433,2.121-1.438c0.603,0.349,1.254,0.619,1.893,0.901c6.985,3.076,13.124,1.397,17.634-4.783
			c4.804-6.583,6.41-14.178,6.333-22.055C180.169,412.642,171.491,402.083,160.412,403.916z M167.735,433.775
			c-1.218,3.994-3.171,5.189-7.375,4.985c-0.599-0.031-1.205-0.05-1.792-0.155c-5.829-1.035-6.115-1.384-6.097-7.256
			c0.006-1.698,0-3.4,0-5.098c0.089,0,0.179,0,0.267,0c0-2.197,0.291-4.442-0.072-6.578c-0.483-2.851,0.939-4.007,3.251-4.664
			c1.914-0.543,3.835-1.142,5.797-1.416c3.132-0.436,5.896,1.521,6.624,4.786C169.488,423.538,169.274,428.726,167.735,433.775z"/>
		<path fill="#69B043" d="M194.854,465.322c-0.049-6.19-0.433-12.362-0.9-19.088c1.398,0.65,2.387,1.081,3.354,1.56
			c6.248,3.08,11.926,2.401,16.526-2.181c5.385-5.368,6.964-12.325,8.159-19.524c2.278-13.735-10.548-27.145-25.25-20.692
			c-1.29,0.565-2.648,1.058-3.17-1.103c-0.32-1.32-1.589-0.988-2.536-0.934c-1.993,0.124-3.984,0.527-5.967,0.475
			c-2.359-0.066-2.796,0.972-2.698,3.09c0.289,6.288,0.451,12.585,0.548,18.885c0.201,13.001-0.171,25.997-0.492,38.994
			c-0.031,1.265-0.352,2.667,1.742,2.73c2.592,0.078,5.188,0.275,7.761,0.588C194.188,468.401,194.874,467.583,194.854,465.322z
			 M197.891,414.931c0.762-0.234,1.526-0.466,2.293-0.679c6.845-1.923,10.338,0.618,10.586,7.8
			c0.127,3.696,0.144,7.397-0.854,11.019c-1.226,4.453-3.146,5.824-7.723,5.697c-2.049-0.058-3.896-0.773-5.805-1.351
			c-1.46-0.441-2.062-1.262-1.99-2.844c0.123-2.697,0.035-5.402,0.035-8.101c0.035,0,0.069,0,0.102,0c0-2.2,0.254-4.438-0.062-6.593
			C194.048,416.976,195.451,415.677,197.891,414.931z"/>
		<path fill="#69B043" d="M389.361,419.85c-0.476-4.667-0.998-9.5-5.243-12.582c-7.391-5.37-22.399-4.352-26.89,7.169
			c-2.53,6.494-3.272,13.221-2.362,20.035c0.957,7.165,5.398,11.491,12.532,13.105c4.943,1.118,9.946,0.775,14.938,0.738
			c6.684-0.047,6.609-0.079,6.519-6.796c-0.027-2.222-0.78-2.972-3.004-2.804c-4.78,0.359-9.573,0.573-14.361-0.006
			c-2.939-0.356-5.059-2.218-5.407-4.746c-0.236-1.719,0.147-2.599,2.173-2.498c3.091,0.153,6.199,0.04,9.301,0.04
			c0,0.041,0,0.087,0,0.128c3.199,0,6.402-0.068,9.599,0.027c1.669,0.051,2.366-0.523,2.324-2.219
			C389.403,426.245,389.684,423.018,389.361,419.85z M374.818,423.744c-0.599-0.013-1.196-0.004-1.793-0.004c0-0.06,0-0.119,0-0.178
			c-1.691,0-3.39-0.107-5.071,0.025c-2.505,0.197-3.003-0.974-2.229-3.036c1.009-2.707,1.988-5.517,4.805-6.927
			c3.238-1.62,6.599-0.197,8.352,3.391C381.714,422.812,381.071,423.875,374.818,423.744z"/>
		<path fill="#69B043" d="M486.057,407.574c-6.452-5.254-20.714-4.651-25.607,3.797c-3.749,6.471-4.955,13.497-4.354,20.771
			c0.782,9.441,5.094,13.821,14.37,15.658c4.476,0.886,8.968,0.601,13.446,0.492c7.926-0.188,6.223,0.621,6.415-6.639
			c0.063-2.376-0.866-3.144-3.186-2.943c-4.681,0.406-9.368,0.59-14.069,0.033c-2.848-0.334-4.599-1.814-5.371-4.444
			c-0.555-1.879-0.083-3.021,2.281-2.892c2.99,0.164,5.996,0.039,8.997,0.039c0,0.058,0,0.116,0,0.172
			c3.2,0,6.404-0.077,9.601,0.032c1.719,0.057,2.346-0.652,2.332-2.265c-0.025-3.003,0.216-6.022-0.053-8.997
			C490.438,415.717,490.086,410.854,486.057,407.574z M481.703,423.094c-1.404,1.943-4.63,0.262-7.036,0.45
			c-2.094,0-4.191,0.021-6.286-0.01c-0.791-0.012-1.601-0.008-1.699-1.182c-0.188-2.193,3.635-8.082,5.861-8.888
			c2.627-0.949,4.891-0.444,6.711,1.732c0.321,0.384,0.729,0.744,0.896,1.189C480.987,418.607,482.982,421.323,481.703,423.094z"/>
		<path fill="#69B043" d="M256.557,431.693c1.859,0.09,2.546-0.653,2.547-2.382c0-2.899,0.273-5.816,0.008-8.688
			c-0.421-4.552-0.754-9.268-4.394-12.701c-6.77-6.387-21.25-4.53-26.011,3.45c-4.382,7.344-5.311,15.445-3.862,23.724
			c1.279,7.31,5.973,11.37,13.29,12.645c4.778,0.83,9.56,0.641,14.35,0.587c6.296-0.071,6.2-0.108,6.113-6.512
			c-0.034-2.46-0.786-3.374-3.321-3.115c-4.67,0.473-9.362,0.666-14.05,0.021c-2.959-0.405-4.998-2.199-5.38-4.786
			c-0.25-1.689,0.065-2.598,2.124-2.483c3.089,0.173,6.194,0.046,9.292,0.046c0,0.052,0,0.104,0,0.157
			C250.363,431.655,253.466,431.547,256.557,431.693z M243.804,423.631c-2.135,0-3.435,0.018-4.734-0.005
			c-4.267-0.076-4.497-0.411-3.079-4.491c0.671-1.931,1.767-3.57,3.398-4.837c2.445-1.894,5.732-1.664,7.862,0.572
			c0.274,0.287,0.562,0.586,0.746,0.935c1.23,2.301,3.091,5.178,1.923,7.219C248.706,425.146,245.343,423.248,243.804,423.631z"/>
	</g>
</g>
</svg>
