<?xml version="1.0" encoding="utf-8"?>
<!-- Generator: Adobe Illustrator 16.0.4, SVG Export Plug-In . SVG Version: 6.00 Build 0)  -->
<!DOCTYPE svg PUBLIC "-//W3C//DTD SVG 1.1//EN" "http://www.w3.org/Graphics/SVG/1.1/DTD/svg11.dtd">
<svg version="1.1" id="Layer_1" xmlns="http://www.w3.org/2000/svg" xmlns:xlink="http://www.w3.org/1999/xlink" x="0px" y="0px"
	 width="300px" height="277px" viewBox="0 -25.5 300 277" enable-background="new 0 -25.5 300 277" xml:space="preserve">
<g>
	<path fill="#D63A3A" d="M40.093,60.251c-1.259,42.742,29.855,21.054,29.855,21.054C41.663,85.081,40.093,60.251,40.093,60.251z"/>
	<path fill="#D63A3A" d="M19.944,90.329c0.194,0.664,0.351,1.038,0.351,1.038C20.163,91.011,20.062,90.674,19.944,90.329z"/>
	<path fill="#D63A3A" d="M36.949,58.993c0,0-26.32,4.308-17.005,31.335C18.781,86.359,16.225,71.646,36.949,58.993z"/>
	<path fill="#D63A3A" d="M27.435,52.394c0,0-39.717,11.599-13.213,38.866C12.816,89.764-4.014,70.795,27.435,52.394z"/>
	<path fill="#D63A3A" d="M80.947,58.993c0,0-36.981,10.804-51.331-25.394C29.616,33.599,42.606,86.022,80.947,58.993z"/>
	<path fill="#D63A3A" d="M41.663,26.31c0,0-0.943,21.315,16.343,23.854c17.287,2.544,27.342,0,27.342,0s-42.742,3.172-38.972-23.541
		c0,0-29.836-10.065-2.19-33.63C44.186-7.006,9.608,13.739,41.663,26.31z"/>
	<path fill="#D63A3A" d="M76.548,36.366c-50.91-38.653-6.6-43.373-6.6-43.373C10.236-4.815,76.548,36.366,76.548,36.366z"/>
	<path fill="#D63A3A" d="M92.889,27.568C65.231,22.225,80.946-7.007,80.946-7.007C55.176,22.841,92.889,27.568,92.889,27.568z"/>
	<path fill="#D63A3A" d="M129.975,16.881c28.915-15.083,43.369,5.264,43.369,5.264s0-3.173-1.746-6.577
		c9.572-0.276,19.661-9.687,19.661-9.687c35.196-27.656,45.254-1.57,45.254-1.57c-6.285-22.315-31.428-14.772-46.825-1.886
		c-8.903,7.452-15.271,10.369-19.07,11.517c-1.654-2.394-4.317-4.662-8.598-5.795c5.982-3.67,18.26-11.061,24.736-13.959
		c-7.334,2.366-22.872,7.899-27.093,13.486c-6.609-0.968-16.394,0.493-30.948,7.003C84.035,34.669,92.889-3.544,92.889-3.544
		C85.347,16.881,101.063,31.967,129.975,16.881z"/>
	<path fill="#D63A3A" d="M254.112,94.507c15.083-27.971,0-58.142,0-58.142C261.024,56.795,254.112,94.507,254.112,94.507z"/>
	<path fill="#D63A3A" d="M257.465,9.727c-5.136-48.321-57.408-22.072-57.408-22.072C249.715-27.118,257.465,9.727,257.465,9.727z"/>
	<path fill="#D63A3A" d="M254.112,23.002c24.944,27.177,17.912,58.935,17.912,58.935C293.709,54.911,254.112,23.002,254.112,23.002z
		"/>
	<path fill="#D63A3A" d="M288.995,69.051c0,0,4.086-45.981-38.97-53.474C250.024,15.577,289.308,34.167,288.995,69.051z"/>
	<path fill="#D63A3A" d="M186.756-5.812c2.361-0.762,3.873-1.195,3.873-1.195C190.021-7.118,188.624-6.648,186.756-5.812z"/>
	<path fill="#D63A3A" d="M198.172,71.878c0,0,5.971,24.513,27.655,22.629c0,0-20.429-8.801-21.372-22.629
		c-0.94-13.827-14.768-32.417-27.97-29.566C176.485,42.314,189.688,42.653,198.172,71.878z"/>
	<path fill="#D63A3A" d="M248.453,99.85c0,0-19.273-6.914-19.694-21.37C228.341,64.022,216.397,57.737,212,60.253
		c0,0,11.001-3.143,11.943,18.856C223.941,79.108,228.656,101.108,248.453,99.85z"/>
	<path fill="#D63A3A" d="M109.86,47.995c-23.277,31.424-5.005,37.589,6.038,38.675C87.396,83.618,109.86,47.995,109.86,47.995z"/>
	<path fill="#D63A3A" d="M98.596,54.91c0,0-36.505,38.13,9.382,44.993C107.978,99.902,75.622,89.247,98.596,54.91z"/>
	<path fill="#D63A3A" d="M88.805,58.993c0,0-50.284,38.026,13.515,45.256C102.318,104.25,51.719,96.081,88.805,58.993z"/>
	<path fill="#D63A3A" d="M225.942,10.931c3.548,0.859,6.899,2.432,9.855,4.571c1.679,1.214,3.225,2.829,4.566,4.706
		c5.375,7.52,7.524,19.25,2.09,26.359c-4.864,6.36-13.916,8.088-21.427,8.642c-4.38,0.323-9.56,0.695-13.9-0.3
		c11.55,2.647,29.011,5.481,37.852-4.959c11.793-13.925-0.607-38.038-16.331-42.24c-14.568-3.893-27.387,6.007-38.021,14.435
		C200.408,14.391,213.133,7.832,225.942,10.931z"/>
	<path fill="#D63A3A" d="M144.589,19.277c-9.225,1.263-18.027,7.927-24.772,13.955c-4.083,3.649-5.603,10.191-6.247,15.352
		c-1.044,8.354,0.451,18.643,8.484,23.173c5.969,3.37,12.165,1.517,18.29,0.123c-12.91,2.936-22.673-1.407-21.761-15.563
		c0.862-13.399,9.477-28.648,23.375-31.081c9.892-1.731,18.972,2.871,24.47,11.129C161.663,28.718,155.337,17.805,144.589,19.277z"
		/>
	<path fill="#D63A3A" d="M122.746-1.527c33.939-23.124,59.398-10.818,59.398-10.818C154.729-34.404,122.746-1.527,122.746-1.527z"/>
	<path fill="#D63A3A" d="M170.829-9.915c-10.324-6.906-27.499,5.049-27.499,5.049C162.973-13.415,170.829-9.915,170.829-9.915z"/>
	<path fill="#D63A3A" d="M158.573,67.439c26.895-1.401-1.493-31.074-1.493-31.074C174.871,62.205,158.573,67.439,158.573,67.439z"/>
	<path fill="#D63A3A" d="M62.266,91.366c-37.478,0.013-26.123-23.927-26.123-23.927C19.645,101.112,62.266,91.366,62.266,91.366z"/>
	<path fill="#D63A3A" d="M76.548,24.607c0,0,14.301,22.034,51.993-2.463C128.541,22.145,91.559,41.096,76.548,24.607z"/>
	<path fill="#D63A3A" d="M102.318,52.394c-0.504-11.342,17.913-22.552,17.913-22.552C95.874,40.406,102.318,52.394,102.318,52.394z"
		/>
	<path fill="#D63A3A" d="M57.611,29.842c16.227,22.51,35.278,9.159,35.278,9.159C74.243,47.155,57.611,29.842,57.611,29.842z"/>
	<path fill="#D63A3A" d="M15.471,86.809C9.188,69.704,25.955,58.993,25.955,58.993C4.507,67.992,15.471,86.809,15.471,86.809z"/>
	<path fill="#D63A3A" d="M186.229,41.118c0,0,14.364,9.283,15.242,13.792c0,0,17.366-13.026,7.942-22.842
		C199.993,22.252,183.752,31.098,186.229,41.118z"/>
	<path fill="#D63A3A" d="M123.954,49.881c-9.033,15.064,8.223,18.434,8.223,18.434c20.389-4.451,9.712-18.32,8.17-21.913
		C138.803,42.807,132.99,34.815,123.954,49.881z"/>
	<path fill="#D63A3A" d="M84.832-3.544c0,0-10.961,23.669,8.058,27.89C92.889,24.346,80.644,18.292,84.832-3.544z"/>
	<path fill="#D63A3A" d="M250.024,53.66c-0.136,0.241-0.286,0.47-0.453,0.692c-4.529,6.099-19.344,5.899-19.344,5.899
		C246.586,71.293,253.91,46.854,250.024,53.66z"/>
	<path fill="#D63A3A" d="M232.972,73.53c0,0-6.462,11.275,15.481,22.53C248.453,96.06,232.972,83.716,232.972,73.53z"/>
	<path fill="#D63A3A" d="M251.048,81.937c3.907-6.553,5.831-11.004-1.542-13.621c0,0-14.164-3.811-11.161,6.863
		C241.348,85.855,247.138,88.49,251.048,81.937z"/>
	<path fill="#D63A3A" d="M38.014,42.932c0,0-6.328-7.855-1.873-17.277C36.142,25.654,26.532,31.942,38.014,42.932z"/>
	<path fill="#D63A3A" d="M50.076,54.682c0,0-9.931-10.351-12.061-26.757C38.014,27.926,35.476,46.802,50.076,54.682z"/>
	<path fill="#D63A3A" d="M283.484,73.53c0,0,10.066,14.004-4.97,20.062C278.515,93.592,302.329,87.644,283.484,73.53z"/>
	<path fill="#D63A3A" d="M286.891,72.902c0,0,18.262,23.105-4.189,26.564C282.701,99.466,310.968,96.853,286.891,72.902z"/>
	<path fill="#D63A3A" d="M12.667,93.592c-10.364-4.103-7.41-8.225-6.985-8.741C-1.174,92.354,12.667,93.592,12.667,93.592z"/>
	<path fill="#D63A3A" d="M276.418,93.592c0,0-3.141,10.025-4.709,11.35C271.709,104.942,278.774,102.903,276.418,93.592z"/>
	<path fill="#D63A3A" d="M170.829,51.296c0,0,9.969,21.496-16.16,25.277C154.669,76.573,185.079,75.173,170.829,51.296z"/>
	<path fill="#D63A3A" d="M118.595,86.852c-0.945-0.031-1.845-0.091-2.697-0.182C116.865,86.765,117.773,86.822,118.595,86.852z"/>
	<path fill="#D63A3A" d="M148.357,78.525c0,0-20.943-7.079-29.762,8.327c-1.221,2.133-2.212,4.687-2.882,7.758
		c0,0,2.22-3.787,6.349-7.763c0.436-0.021,0.683-0.04,0.683-0.04c-0.228,0.013-0.443,0.015-0.669,0.026
		C127.626,81.496,136.624,75.826,148.357,78.525z"/>
	<path fill="#D63A3A" d="M214.514,22.145c0,0,22.785,6.701,14.244,20.787C228.758,42.932,245.26,25.702,214.514,22.145z"/>
	<path fill="#D63A3A" d="M232.081,2.83c-10.568-11.568-24.953-1.202-24.953-1.202C224.2-3.667,232.081,2.83,232.081,2.83z"/>
	<path fill="#D63A3A" d="M248.453,2.83c1.875,12.772,17.864,12.748,17.864,12.748s11.151-0.653,0-0.897
		C255.161,14.436,248.453,2.83,248.453,2.83z"/>
	<path fill="#D63A3A" d="M87.29-12.062C66.56-27.918,50.076-8.464,50.076-8.464C69.177-21.766,87.29-12.062,87.29-12.062z"/>
	<path fill="#D63A3A" d="M64.676-10.746c10.469-1.85,24.865,3.739,24.865,3.739C80.38-15.065,64.676-10.746,64.676-10.746z"/>
	<path fill="#D63A3A" d="M105.49-1.433c7.293,23.388,42.869,4.264,42.869,4.264c-29.988,9.769-41.757-3.007-42.814-4.254
		c5.331,1.116,9.784-1.199,11.482-2.122c2.617-1.424,3.035-18.112-11.571-15.918c0,0-17.894,2.794-9.05,12.439
		C99.492-3.656,102.616-2.045,105.49-1.433z"/>
	<path fill="#D63A3A" d="M64.676,97.99c0,0-18.059,10.312-27.727-3.379C36.949,94.61,40.819,113.625,64.676,97.99z"/>
	<path fill="#D63A3A" d="M67.042,92.365C58.158,97.228,43.96,94.61,43.96,94.61C57.415,104.362,67.042,92.365,67.042,92.365z"/>
	<path fill="#D63A3A" d="M156.688,102.296c-8.381-20.539-26.602-6.235-26.602-6.235C146.921,88.63,156.688,102.296,156.688,102.296z
		"/>
	<path fill="#D63A3A" d="M19.311,104.942c0,0-13.291-4.134-6.645-10.332C12.667,94.61,1.313,101.022,19.311,104.942z"/>
	<path fill="#D63A3A" d="M36.949,54.91c-6.952-4.742-8.906-18.543-8.906-18.543C22.851,50.937,36.949,54.91,36.949,54.91z"/>
	<path fill="#D63A3A" d="M151.88,81.621c0,0,42.35,6.739,24.605-26.711C176.485,54.91,188.361,78.739,151.88,81.621z"/>
	<path fill="#D63A3A" d="M194.922,102.296c-10.999-10.039-12.777-27.116-12.777-27.116
		C171.949,93.384,194.922,102.296,194.922,102.296z"/>
	<path fill="#D63A3A" d="M134.384,34.293c15.375-6.905,25.105-0.691,28.696,2.445C144.966,19.377,134.384,34.293,134.384,34.293z"/>
	<path fill="#D63A3A" d="M163.08,36.738c0.518,0.494,1.039,1.007,1.568,1.557C164.648,38.295,164.119,37.645,163.08,36.738z"/>
	<path fill="#D63A3A" d="M178.084,19.144c0,0,16.432,2.871,21.015-14.809C199.099,4.335,186.735,20.128,178.084,19.144z"/>
	<path fill="#D63A3A" d="M67.042-3.544c0,0-18.274,3.933-6.28,20.672C60.347,16.508,54.353,7.059,67.042-3.544z"/>
	<path fill="#D63A3A" d="M47.307,23.002c0,0-12.732-14.352-4.982-22.91C42.326,0.093,25.064,11.292,47.307,23.002z"/>
	<path fill="#D63A3A" d="M101.546,0.093c0,0-5.562,11.752,18.686,11.733C120.232,11.826,102.738,8.815,101.546,0.093z"/>
	<path fill="#D63A3A" d="M152.444,14.68c14.634,7.74,19.107,13.152,20.425,16.078C169.403,16.953,152.444,14.68,152.444,14.68z"/>
	<path fill="#D63A3A" d="M173.342,33.312c0,0,0.287-0.864-0.473-2.553C173.074,31.572,173.237,32.417,173.342,33.312z"/>
	<path fill="#D63A3A" d="M219.226,47.995c13.201-14.657-12.098-24.993-12.098-24.993C223.6,32.851,219.226,47.995,219.226,47.995z"
		/>
	<path fill="#D63A3A" d="M255.815,29.842c16.119,32.024,6.807,64.769,6.807,64.769C281.25,63.167,255.815,29.842,255.815,29.842z"/>
	<path fill="#D63A3A" d="M252.592,22.145c-9.463-8.462-8.955-27.012-8.955-27.012C235.04,14.298,252.592,22.145,252.592,22.145z"/>
	<path fill="#D63A3A" d="M95.339,77.407c0,0-6.893,10.326,20.374,23.577C115.713,100.983,94.981,86.07,95.339,77.407z"/>
	<path fill="#D63A3A" d="M43.959,62.228c8.839,25.403,26.021,6.088,26.021,6.088C51.156,77.637,43.959,62.228,43.959,62.228z"/>
	<path fill="#D63A3A" d="M52.712,27.568c0.039,24.764,29.702,18.069,29.702,18.069C56.953,44.385,52.712,27.568,52.712,27.568z"/>
	<path fill="#D63A3A" d="M233.183,99.902c-30.156,1.07-38.261-24.558-38.261-24.558C197.292,102.461,233.183,99.902,233.183,99.902z
		"/>
	<path fill="#D63A3A" d="M115.713,81.937c0,0-10.144-4.016-7.737-19.709C107.978,62.228,98.42,77.395,115.713,81.937z"/>
	<path fill="#D63A3A" d="M260.814,81.621c0,0-2.213,18.282-11.309,21.267C249.506,102.887,266.532,99.156,260.814,81.621z"/>
	<path fill="#D63A3A" d="M201.472,25.654c0,0-16.132-8.365-23.388,8.639C178.084,34.293,188.739,22.518,201.472,25.654z"/>
	<path fill="#D63A3A" d="M149.356,104.158c0,0-0.197-5.923-22.45-4.192C126.906,99.967,143.104,99.953,149.356,104.158z"/>
	<path fill="#D63A3A" d="M157.08,84.797c16.649,6.878,22.454-7.391,22.454-7.391C172.998,85.774,157.08,84.797,157.08,84.797z"/>
	<path fill="#D63A3A" d="M182.145,104.158c-9.698-8.963-5.659-17.974-5.659-17.974C166.74,98.838,182.145,104.158,182.145,104.158z"
		/>
	<path fill="#D63A3A" d="M207.128,63.161c0,0,12.599,4.552,12.098,20.066C219.226,83.227,222.2,63.31,207.128,63.161z"/>
	<path fill="#D63A3A" d="M107.978,34.293c0,0-17.936,1.41-22.629,20.617C85.347,54.91,95.723,38.743,107.978,34.293z"/>
	<path fill="#D63A3A" d="M162.92-8.465c-7.694,6.779-34.379,10.093-34.379,10.093C149.204,6.872,162.92-8.465,162.92-8.465z"/>
	<path fill="#D63A3A" d="M138.132,38.295c0,0,18.365-5.176,18.948,16.387C157.08,54.681,166.401,28.594,138.132,38.295z"/>
	<path fill="#D63A3A" d="M145.731,42.021c8.766,10.332-1.221,27.031-1.221,27.031C162.476,54.974,145.731,42.021,145.731,42.021z"/>
	<path fill="#D63A3A" d="M154.669,58.993c-0.131,8.878-12.763,13.908-12.763,13.908C154.464,73.387,154.669,58.993,154.669,58.993z"
		/>
	<path fill="#D63A3A" d="M115.713,0.093c14.707-3.055,7.032-16.603,7.032-16.603C126.869-6.48,115.713,0.093,115.713,0.093z"/>
	<path fill="#D63A3A" d="M223.041,46.461c0,0,16.933-16.385-8.988-22.467C214.053,23.994,230.852,33.149,223.041,46.461z"/>
	<path fill="#D63A3A" d="M228.473,20.742c-13.014-7.164-27.001,1.401-27.001,1.401C210.274,18.656,228.473,20.742,228.473,20.742z"
		/>
	<path fill="#D63A3A" d="M29.616,69.051c-11.922,11.873,5.579,23.202,5.579,23.202C27.204,84.46,29.616,69.051,29.616,69.051z"/>
	<path fill="#D63A3A" d="M278.518,77.407c0,0-7.259,20.568-16.673,24.033C266.828,100.018,279.438,94.702,278.518,77.407z"/>
	<path fill="#D63A3A" d="M261.845,101.439c-1.016,0.292-1.721,0.421-1.923,0.455C260.57,101.828,261.214,101.671,261.845,101.439z"
		/>
	<path fill="#D63A3A" d="M128.541,75.344c-16.184,2.615-17.651-15.093-17.651-15.093C109.274,84.909,128.541,75.344,128.541,75.344z
		"/>
	<path fill="#D63A3A" d="M197.857-9.454c-13.567-6.697-28.273,2.306-35.214,7.643C174.929-9.85,197.857-9.454,197.857-9.454z"/>
	<path fill="#D63A3A" d="M158.573,1.627c0,0,1.513-1.473,4.07-3.439C161.1-0.801,159.714,0.333,158.573,1.627z"/>
	<path fill="#D63A3A" d="M128.653,10.393c-15.417,7.6-29.089,1.037-29.089,1.037C108.006,25.957,128.653,10.393,128.653,10.393z"/>
	<path fill="#D63A3A" d="M230.228,6.807c0,0-11.688-12.298-30.171,4.74C200.057,11.547,221.516,0.061,230.228,6.807z"/>
	<path fill="#D63A3A" d="M194.922-5.104c-1.639,0.288-3.464,0.873-5.367,1.646C192.701-4.496,194.922-5.104,194.922-5.104z"/>
	<path fill="#D63A3A" d="M168.309,9.203c0,0,11.627-8.757,21.246-12.661C181.995-0.966,169.034,4.033,168.309,9.203z"/>
	<path fill="#D63A3A" d="M121.337,2.83L143.33-8.208C143.33-8.208,125.825-3.91,121.337,2.83z"/>
	<path fill="#D63A3A" d="M87.29,35.228C65.987,26.789,67.565,2.516,67.565,2.516C59.132,30.856,87.29,35.228,87.29,35.228z"/>
	<path fill="#D63A3A" d="M57.611,52.469c9.503,9.286,25.016,5.475,33.341,2.421C76.739,58.937,57.611,52.469,57.611,52.469z"/>
	<path fill="#D63A3A" d="M90.952,54.89c2.026-0.577,3.954-1.367,5.71-2.421C96.664,52.469,94.432,53.613,90.952,54.89z"/>
	<path fill="#D63A3A" d="M91.011,104.25c-14-1.621-21.03-9.742-21.03-9.742C70.011,107.71,91.011,104.25,91.011,104.25z"/>
	<path fill="#D63A3A" d="M223.041,91.366c0,0-14.811-13.089-15.912-23.05C207.128,68.315,201.011,76.863,223.041,91.366z"/>
	<path fill="#D63A3A" d="M221.264-13.375c0,0,16.687,4.997,16.665,13.467C237.929,0.093,242.467-14.405,221.264-13.375z"/>
	<path fill="#D63A3A" d="M278.515,44.601c4.32,10.797,2.735,32.806,2.735,32.806C291.94,61.443,278.515,44.601,278.515,44.601z"/>
	<path fill="#D63A3A" d="M212.217,14.68c25.177,0.384,29.05,23.614,29.05,23.614C240.744,8.667,212.217,14.68,212.217,14.68z"/>
	<path fill="#D63A3A" d="M236.513,33.312c-0.423,16.903-21.369,19.158-21.369,19.158C241.692,53.963,236.513,33.312,236.513,33.312z
		"/>
	<path fill="#D63A3A" d="M245.938,105.87h-32.863c-7.396-4.804-19.218-14.976-22.445-32.34
		c-4.793-25.806-12.571-23.646-14.144-22.234c0,0,9.744,0.313,9.744,22.234c0,0,3.249,23.409,18.979,32.34h-4.313
		C211.639,110.664,234.575,107.748,245.938,105.87z"/>
	<path fill="#D63A3A" d="M280.288,105.87l-6.687-0.021l-0.04,0.021h-5.245c-3.664,4.258-8.054,6.375-9.926,7.136
		c2.555-1.134,5.085-3.898,7.343-7.136h-3.021c-6.918,8.051-20.732,16.377-48.198,15.372c0,0,27.111-1.132,44.277-15.372h-9.859
		c-33.066,10.543-45.662,2.829-48.912,0h-8.743c4.513,4.592,16.092,8.722,31.943,6.842c0,0-29.997,10.923-37.812-6.842h-12.887
		c-29.255-47.174-52.29-5.968-52.29-5.968c21.57-24.815,42.264-5.463,51.382,5.968h-4.681c7.697,4.825,2.327,14.22,1.998,14.327
		c0.899-4.447-3.312-10.681-6.209-14.327h-6.271c4.618,6.71,7.461,13.672,7.461,13.672c-3.796-6.016-7.375-10.456-10.717-13.672
		H126.5h-1.441h-0.465h-4.363h-39.07c4.642,2.252,14.39,5.048,34.554,5.607c0,0-27.723,7.999-37.019-5.607h-1.419
		c20.164,27.485,51.264,5.607,51.264,5.607c-29.197,31.316-46.956,3.933-51.881-5.607h-6.877
		c3.561,18.605-24.763,9.081-24.763,9.081c17.09,3.264,21.863-4.146,23.181-9.081h-1.886c-4.873,14.696-24.69,5.607-24.69,5.607
		c9.541,3.671,18.05-1.857,22.385-5.607h-1.908c-7.793,3.826-18.443,6.886-25.161,0l-2.878,0.148l-21.395-0.613
		c0.039,0.019,0.075,0.059,0.108,0.115c-11.583-4.14-4.557-10.123-4.557-10.123c-10.847,8.742-0.797,10.65,4.831,11.062
		c0.974,4.24,4.358,19.422,49.215,13.463c-36.809,7.684-48.355,0.398-51.229-10.997v28.913h280.833V105.87h-11.19
		C280.473,105.826,280.288,105.87,280.288,105.87z M257.465,113.351c0.143-0.041,0.285-0.099,0.425-0.151
		C257.619,113.302,257.465,113.351,257.465,113.351z"/>
	<path fill="#D63A3A" d="M21.227,103.226c-0.018,0.016,1.74,0.269,1.721,0.283c3.191,0,3.94,0.425,8.311-0.283
		c1.536-1.205,3.419-6.131,1.224-8.801c-1.435-1.747-3.976-2.555-6.148-2.735c-5.67-0.469-9.34,3.481-7.372,9.055
		C19.465,102.17,20.484,101.957,21.227,103.226z"/>
	<path fill="#D63A3A" d="M199.099,104.942c0,0,0.281,0.369,0.921,0.928h0.873C200.256,105.584,199.643,105.284,199.099,104.942z"/>
	<path fill="#D63A3A" d="M21.119,141.291c-0.055,1.184-0.311,2.385-0.091,3.562c8.796,46.98,38.299,87.084,88.131,100.684h85.253
		c50.343-13.184,77.603-53.902,83.306-100.684c0.146-1.186-0.034-2.379-0.089-3.562H21.119z"/>
</g>
</svg>
