<?xml version="1.0" encoding="utf-8"?>
<!-- Generator: Adobe Illustrator 16.0.4, SVG Export Plug-In . SVG Version: 6.00 Build 0)  -->
<!DOCTYPE svg PUBLIC "-//W3C//DTD SVG 1.1//EN" "http://www.w3.org/Graphics/SVG/1.1/DTD/svg11.dtd">
<svg version="1.1" id="Layer_1" xmlns="http://www.w3.org/2000/svg" xmlns:xlink="http://www.w3.org/1999/xlink" x="0px" y="0px"
	 width="40px" height="40px" viewBox="0 0 40 40" enable-background="new 0 0 40 40" xml:space="preserve">
<circle fill="#D63A3A" cx="20.022" cy="20.022" r="20.022"/>
<g>
	<path fill="#FFFFFF" d="M17.422,17.204c0.344-0.52,1.528-1.302,1.528-4.193c0-2.635-1.227-4.769-3.404-4.769
		c-2.175,0-3.403,2.134-3.403,4.769c0,2.891,1.251,3.719,1.524,4.193c0.278,0.48,0.804,0.714,0.804,2.589l-0.139,10.792
		c0,0.67,0.544,1.217,1.214,1.217c0.67,0,1.215-0.546,1.215-1.217l-0.155-10.792C16.605,17.918,17.082,17.728,17.422,17.204"/>
	<path fill="#FFFFFF" d="M23.057,8.538H21.84l-0.261,6.399c0,1.248,0.287,2.311,1.218,2.682l-0.005,0.003
		c0,0,0.888,0.296,0.888,2.171l-0.157,10.792c0,0.67,0.551,1.217,1.223,1.217c0.67,0,1.214-0.546,1.214-1.217l-0.165-10.792
		c0-1.875,0.903-2.171,0.903-2.171l-0.006-0.003c0.93-0.371,1.209-1.434,1.209-2.682L27.58,8.538h-1.16v5.299
		c0,0.283-0.236,0.515-0.521,0.515c-0.29,0-0.519-0.232-0.519-0.515V8.538h-1.282v5.299c0,0.283-0.235,0.515-0.521,0.515
		c-0.283,0-0.519-0.232-0.519-0.515V8.538L23.057,8.538z"/>
</g>
</svg>
